# xmcd
#
# Track frame offsets:
#   182
#   24082
#   44032
#   58657
#   72607
#   90307
#   104632
#   116032
#   133282
#   150007
#   166582
#   178957
#   197032
#   214132
#   227182
#   241657
#   263557
#   277732
#
# Disc length: 3912 seconds
#
# Revision: 0
# Processed by: cddbd v1.5PL3 Copyright (c) Steve Scherf et al.
# Submitted via: uFREEDB 1.6.0
#
DISCID=f60f4612
DTITLE=Various Artist - From Ireland With Love
DYEAR=1900
DGENRE=Folk
TTITLE0=After The Ball
TTITLE1=When You Were Sweet Sixteen
TTITLE2=Danny Boy
TTITLE3=Isle Of Inisfree
TTITLE4=Maggie (Mary Duff
TTITLE5=Almost Persuaded
TTITLE6=My Wild Irish Rose
TTITLE7=Dirty Old Town
TTITLE8=I'l Take you Home Again Kathleen
TTITLE9=Beautiful Meath
TTITLE10=Rose Of Tralee
TTITLE11=Mountans Of Mourne
TTITLE12=Sonny
TTITLE13=Make The World Go Away
TTITLE14=When I Dream
TTITLE15=The Fields Of Athenry
TTITLE16=Green Glens Of Antrim
TTITLE17=The Rose Of Mooncoin
EXTD=
EXTT0=
EXTT1=
EXTT2=
EXTT3=
EXTT4=
EXTT5=
EXTT6=
EXTT7=
EXTT8=
EXTT9=
EXTT10=
EXTT11=
EXTT12=
EXTT13=
EXTT14=
EXTT15=
EXTT16=
EXTT17=
PLAYORDER=
